<svg width="24" height="24" viewBox="0 0 24 24" fill="none" xmlns="http://www.w3.org/2000/svg">
<path d="M2.90542 17.5048L5.33642 3.71783C5.38195 3.45911 5.478 3.21189 5.61909 2.99029C5.76018 2.7687 5.94354 2.57707 6.15871 2.42635C6.37387 2.27564 6.61662 2.16879 6.87308 2.1119C7.12955 2.05502 7.39471 2.04922 7.65342 2.09483L19.4714 4.17983C19.9938 4.27201 20.4581 4.56791 20.7623 5.00242C21.0664 5.43694 21.1856 5.97449 21.0934 6.49683L18.6624 20.2838C18.6169 20.5426 18.5208 20.7898 18.3797 21.0114C18.2387 21.233 18.0553 21.4246 17.8401 21.5753C17.625 21.726 17.3822 21.8329 17.1258 21.8898C16.8693 21.9466 16.6041 21.9524 16.3454 21.9068L4.52742 19.8218C4.00508 19.7297 3.54076 19.4338 3.23658 18.9992C2.9324 18.5647 2.81328 18.0272 2.90542 17.5048Z" stroke="#3B5998" stroke-width="1.5"/>
<path d="M8.92806 6.38184L16.8071 7.77084M8.23306 10.3208L16.1121 11.7108M7.53906 14.2598L12.4631 15.1288" stroke="#3B5998" stroke-width="1.5" stroke-linecap="round"/>
</svg>
