<svg width="31" height="31" viewBox="0 0 31 31" fill="none" xmlns="http://www.w3.org/2000/svg">
<path d="M30.5221 6.02789C29.9253 5.0023 28.8274 4.30566 27.5556 4.30566H15.5V6.02789H30.5221ZM0 21.5279H31V23.2501H0V21.5279ZM15.5 14.639H31V16.3612H15.5V14.639ZM15.5 11.1946H31V12.9168H15.5V11.1946ZM0 18.0834H31V19.8057H0V18.0834ZM3.44444 26.6946H27.5556C28.8274 26.6946 29.9253 25.9979 30.5221 24.9723H0.477917C1.07467 25.9979 2.17258 26.6946 3.44444 26.6946ZM15.5 7.75011H31V9.47233H15.5V7.75011Z" fill="#B22334"/>
<path d="M0.0585556 23.8347C0.0729074 23.9151 0.0898426 23.9946 0.109361 24.0733C0.132324 24.1594 0.158731 24.2444 0.188583 24.3282C0.265222 24.5512 0.358222 24.7665 0.475333 24.968L0.477917 24.9723H30.5221L30.5238 24.9688C30.6405 24.7664 30.7363 24.5526 30.8097 24.3307C30.8656 24.1689 30.9093 24.0031 30.9406 23.8347C30.9759 23.6453 31 23.4507 31 23.2501H0C0 23.4507 0.0241111 23.6444 0.0585556 23.8347ZM0 19.8056H31V21.5278H0V19.8056ZM0 16.3612V18.0834H31V16.3612H15.5H0ZM15.5 12.9167H31V14.6389H15.5V12.9167ZM15.5 9.47228H31V11.1945H15.5V9.47228ZM0.110222 6.92683C0.13175 6.839 0.161889 6.75547 0.189444 6.67108C0.159732 6.75527 0.133305 6.84059 0.110222 6.92683ZM15.5 7.75005H31C31 7.54942 30.9759 7.3548 30.9406 7.1645C30.9104 6.99581 30.8664 6.82991 30.8088 6.6685C30.7353 6.44574 30.6392 6.23107 30.5221 6.02783H15.5V7.75005Z" fill="#EEEEEE"/>
<path d="M15.5 4.30566H3.44444C2.53092 4.30566 1.65481 4.66856 1.00885 5.31452C0.362896 5.96048 0 6.83659 0 7.75011L0 16.3612H15.5V4.30566Z" fill="#3C3B6E"/>
<path d="M1.72266 6.653L2.25482 7.03964L2.0516 7.66394L2.58291 7.27817L3.11507 7.66394L2.91185 7.03964L3.44402 6.653H2.78613L2.58291 6.02783L2.38055 6.653H1.72266ZM3.44488 8.37522L3.97705 8.76186L3.77382 9.38616L4.30513 9.00039L4.8373 9.38616L4.63407 8.76186L5.16624 8.37522H4.50835L4.30513 7.75005L4.10277 8.37522H3.44488ZM6.88932 8.37522L7.42149 8.76186L7.21827 9.38616L7.74957 9.00039L8.28174 9.38616L8.07852 8.76186L8.61068 8.37522H7.9528L7.74957 7.75005L7.54721 8.37522H6.88932ZM10.3338 8.37522L10.8659 8.76186L10.6627 9.38616L11.194 9.00039L11.7262 9.38616L11.523 8.76186L12.0551 8.37522H11.3972L11.194 7.75005L10.9917 8.37522H10.3338ZM3.44488 11.8197L3.97705 12.2063L3.77382 12.8306L4.30513 12.4448L4.8373 12.8306L4.63407 12.2063L5.16624 11.8197H4.50835L4.30513 11.1945L4.10277 11.8197H3.44488ZM6.88932 11.8197L7.42149 12.2063L7.21827 12.8306L7.74957 12.4448L8.28174 12.8306L8.07852 12.2063L8.61068 11.8197H7.9528L7.74957 11.1945L7.54721 11.8197H6.88932ZM10.3338 11.8197L10.8659 12.2063L10.6627 12.8306L11.194 12.4448L11.7262 12.8306L11.523 12.2063L12.0551 11.8197H11.3972L11.194 11.1945L10.9917 11.8197H10.3338ZM5.1671 6.653L5.69927 7.03964L5.49605 7.66394L6.02735 7.27817L6.55952 7.66394L6.3563 7.03964L6.88846 6.653H6.23057L6.02735 6.02783L5.82499 6.653H5.1671ZM8.61155 6.653L9.14371 7.03964L8.94049 7.66394L9.4718 7.27817L10.004 7.66394L9.80074 7.03964L10.3329 6.653H9.67502L9.4718 6.02783L9.26943 6.653H8.61155ZM12.056 6.653L12.5882 7.03964L12.3849 7.66394L12.9162 7.27817L13.4484 7.66394L13.2452 7.03964L13.7774 6.653H13.1195L12.9162 6.02783L12.7139 6.653H12.056ZM1.72266 10.0974L2.25482 10.4841L2.0516 11.1084L2.58291 10.7226L3.11507 11.1084L2.91185 10.4841L3.44402 10.0974H2.78613L2.58291 9.47228L2.38055 10.0974H1.72266ZM5.49605 11.1084L6.02735 10.7226L6.55952 11.1084L6.3563 10.4841L6.88846 10.0974H6.23057L6.02735 9.47228L5.82499 10.0974H5.1671L5.69927 10.4841L5.49605 11.1084ZM8.61155 10.0974L9.14371 10.4841L8.94049 11.1084L9.4718 10.7226L10.004 11.1084L9.80074 10.4841L10.3329 10.0974H9.67502L9.4718 9.47228L9.26943 10.0974H8.61155ZM12.056 10.0974L12.5882 10.4841L12.3849 11.1084L12.9162 10.7226L13.4484 11.1084L13.2452 10.4841L13.7774 10.0974H13.1195L12.9162 9.47228L12.7139 10.0974H12.056ZM1.72266 13.5419L2.25482 13.9285L2.0516 14.5528L2.58291 14.1671L3.11507 14.5528L2.91185 13.9285L3.44402 13.5419H2.78613L2.58291 12.9167L2.38055 13.5419H1.72266ZM5.49605 14.5528L6.02735 14.1671L6.55952 14.5528L6.3563 13.9285L6.88846 13.5419H6.23057L6.02735 12.9167L5.82499 13.5419H5.1671L5.69927 13.9285L5.49605 14.5528ZM8.61155 13.5419L9.14371 13.9285L8.94049 14.5528L9.4718 14.1671L10.004 14.5528L9.80074 13.9285L10.3329 13.5419H9.67502L9.4718 12.9167L9.26943 13.5419H8.61155ZM12.056 13.5419L12.5882 13.9285L12.3849 14.5528L12.9162 14.1671L13.4484 14.5528L13.2452 13.9285L13.7774 13.5419H13.1195L12.9162 12.9167L12.7139 13.5419H12.056Z" fill="white"/>
</svg>
