<svg width="31" height="31" viewBox="0 0 31 31" fill="none" xmlns="http://www.w3.org/2000/svg">
<path d="M27.5556 3.875H3.44444C2.53092 3.875 1.65481 4.2379 1.00885 4.88385C0.362896 5.52981 0 6.40592 0 7.31944L0 22.8194C0 23.733 0.362896 24.6091 1.00885 25.255C1.65481 25.901 2.53092 26.2639 3.44444 26.2639H27.5556C28.4691 26.2639 29.3452 25.901 29.9911 25.255C30.6371 24.6091 31 23.733 31 22.8194V7.31944C31 6.40592 30.6371 5.52981 29.9911 4.88385C29.3452 4.2379 28.4691 3.875 27.5556 3.875Z" fill="#DA251D"/>
<path d="M17.0087 13.8098L15.4992 9.16406L13.9897 13.8098H9.10547L13.0571 16.6798L11.5476 21.3255L15.4992 18.4546L19.4509 21.3255L17.9413 16.6798L21.893 13.8098H17.0087Z" fill="#FFFF00"/>
</svg>
